<svg width="185" height="192" viewBox="0 0 185 192" fill="none" xmlns="http://www.w3.org/2000/svg">
<path d="M184.45 8.07C184.336 6.11285 183.507 4.26581 182.121 2.87954C180.734 1.49327 178.887 0.664295 176.93 0.55C100.8 -3.92 39.8202 19 13.8202 62C4.8078 76.7091 0.366731 93.7634 1.06016 111C1.51278 122.022 3.7554 132.898 7.70016 143.2C7.93195 143.834 8.32044 144.399 8.82943 144.843C9.33843 145.286 9.95137 145.593 10.6112 145.736C11.271 145.879 11.9562 145.852 12.603 145.659C13.2497 145.465 13.837 145.112 14.3102 144.63L99.3102 58.33C100.053 57.5867 100.936 56.9971 101.907 56.5949C102.878 56.1926 103.919 55.9855 104.97 55.9855C106.021 55.9855 107.062 56.1926 108.033 56.5949C109.004 56.9971 109.887 57.5867 110.63 58.33C111.373 59.0733 111.963 59.9557 112.365 60.9268C112.768 61.898 112.975 62.9388 112.975 63.99C112.975 65.0412 112.768 66.082 112.365 67.0532C111.963 68.0243 111.373 68.9067 110.63 69.65L17.7402 163.94L3.55015 178.13C2.07441 179.567 1.19338 181.506 1.08221 183.563C0.971042 185.619 1.63788 187.643 2.95016 189.23C3.66882 190.062 4.55135 190.737 5.54262 191.213C6.53389 191.689 7.61263 191.956 8.71148 191.996C9.81034 192.036 10.9057 191.85 11.9292 191.448C12.9527 191.046 13.8824 190.437 14.6602 189.66L31.4502 172.87C45.5902 179.71 59.8602 183.44 74.0102 183.94C75.1235 183.98 76.2335 184 77.3401 184C93.4542 184.041 109.263 179.603 123 171.18C166 145.18 188.93 84.21 184.45 8.07Z" fill="#3D8168"/>
</svg>
